<svg width="32" height="29" viewBox="0 0 32 29" fill="none" xmlns="http://www.w3.org/2000/svg">
<path d="M26.1691 15.4473C26.0444 12.9383 24.9906 10.5568 23.2003 8.77214C21.2909 6.86864 18.7004 5.79991 16 5.79991C13.2996 5.79991 10.7091 6.86864 8.79967 8.77214C6.89019 10.6756 5.81811 13.258 5.81811 15.95C5.81811 18.6419 6.89019 21.2243 8.79967 23.1278C10.7091 25.0313 13.2996 26.1 16 26.1L16.5043 26.0872C19.0211 25.9629 21.4101 24.9124 23.2003 23.1278C25.1098 21.2243 26.1819 18.6419 26.1819 15.95L26.1691 15.4473ZM20.0625 12.0247C20.6306 11.4585 21.5513 11.4585 22.1194 12.0247C22.6874 12.591 22.6874 13.5089 22.1194 14.0751L15.5739 20.6002C15.0058 21.1664 14.0851 21.1664 13.517 20.6002L10.6079 17.7002C10.0399 17.1339 10.0399 16.216 10.6079 15.6498C11.176 15.0835 12.0967 15.0835 12.6648 15.6498L14.5454 17.5246L20.0625 12.0247ZM4.7897 0.424697C5.35773 -0.141566 6.27849 -0.141566 6.84653 0.424697C7.41457 0.990959 7.41457 1.90883 6.84653 2.4751L2.48286 6.82511C1.91482 7.39137 0.994069 7.39137 0.426029 6.82511C-0.14201 6.25885 -0.14201 5.34098 0.426029 4.77471L4.7897 0.424697ZM25.1535 0.424697C25.7215 -0.141566 26.6423 -0.141566 27.2103 0.424697L31.574 4.77471C32.142 5.34098 32.142 6.25885 31.574 6.82511C31.0059 7.39137 30.0852 7.39137 29.5171 6.82511L25.1535 2.4751C24.5854 1.90883 24.5854 0.990959 25.1535 0.424697ZM29.0754 16.5971C28.9389 19.3386 27.9362 21.9594 26.2259 24.0935L28.6649 26.5248C29.2329 27.0911 29.2329 28.0089 28.6649 28.5752C28.0968 29.1415 27.1761 29.1415 26.608 28.5752L24.1691 26.1439C22.0283 27.8488 19.3993 28.8484 16.6492 28.9844L16 29C13.0161 29 10.1383 27.983 7.82949 26.1439L5.39197 28.5752C4.82393 29.1415 3.90318 29.1415 3.33514 28.5752C2.7671 28.0089 2.7671 27.0911 3.33514 26.5248L5.77266 24.0935C3.92857 21.7921 2.909 18.9239 2.909 15.95C2.909 12.4889 4.2878 9.1691 6.74283 6.72174C9.19787 4.27438 12.5281 2.8999 16 2.8999C19.4719 2.8999 22.8021 4.27438 25.2572 6.72174C27.7122 9.1691 29.091 12.4889 29.091 15.95L29.0754 16.5971Z" fill="black"/>
</svg>
