<svg width="28" height="28" viewBox="0 0 28 28" fill="none" xmlns="http://www.w3.org/2000/svg">
<path d="M13.9997 7.63505C15.4326 7.63505 16.7543 8.10989 17.818 8.90905V8.90781C17.8182 8.2051 18.388 7.63506 19.0907 7.63505C19.7935 7.63505 20.3632 8.20509 20.3635 8.90781V15.2716C20.3635 15.9467 20.6319 16.5952 21.1092 17.0726C21.5866 17.5497 22.2341 17.8171 22.909 17.8171C23.5839 17.8171 24.2314 17.5497 24.7087 17.0726C25.1861 16.5952 25.4545 15.9467 25.4545 15.2716V13.9988C25.4542 11.4137 24.5793 8.90436 22.9724 6.87935C21.3653 4.85436 19.1199 3.43233 16.6024 2.84481C14.0849 2.25745 11.4424 2.53949 9.1051 3.64402C6.76792 4.74866 4.87263 6.61095 3.72822 8.92894C2.58379 11.247 2.25803 13.8841 2.80224 16.4114C3.34655 18.9386 4.72899 21.2082 6.72615 22.8497C8.72346 24.4912 11.2184 25.4092 13.8033 25.4537C16.3879 25.498 18.9114 24.6662 20.9638 23.0946C21.5218 22.6673 22.3212 22.7728 22.7487 23.3307C23.1759 23.8887 23.0703 24.6881 22.5125 25.1156C20.0038 27.0368 16.918 28.0523 13.7586 27.9979C10.5994 27.9435 7.5514 26.8222 5.11035 24.816C2.66942 22.8099 0.979279 20.037 0.313913 16.9483C-0.351351 13.8594 0.0475501 10.6361 1.44622 7.80285C2.84498 4.96962 5.16082 2.69222 8.01754 1.34211C10.8744 -0.00797343 14.1045 -0.351699 17.1816 0.366416C20.2585 1.08452 23.0019 2.82218 24.966 5.29711C26.9301 7.77219 27.9997 10.8391 28 13.9988V15.2716C28 16.6218 27.4632 17.9176 26.5085 18.8724C25.5538 19.8269 24.259 20.3626 22.909 20.3626C21.559 20.3626 20.2642 19.8269 19.3095 18.8724C19.1068 18.6697 18.9239 18.4504 18.7601 18.2198C17.5943 19.5338 15.8944 20.3626 13.9997 20.3626C10.4851 20.3626 7.63597 17.5135 7.63597 13.9988C7.63621 10.4844 10.4853 7.63506 13.9997 7.63505ZM10.1815 13.9988C10.1815 16.1076 11.891 17.8171 13.9997 17.8171C16.1085 17.8171 17.818 16.1076 17.818 13.9988C17.8177 11.8903 16.1083 10.1806 13.9997 10.1806C11.8911 10.1806 10.1817 11.8903 10.1815 13.9988Z" fill="black"/>
</svg>
