<svg width="29" height="30" viewBox="0 0 29 30" fill="none" xmlns="http://www.w3.org/2000/svg">
<path d="M26.6429 19.5508C27.1822 19.0113 28.0564 19.0113 28.5957 19.5508C29.1347 20.0905 29.1349 20.9652 28.5957 21.5047L23.0718 27.0315C22.5326 27.5707 21.6583 27.5707 21.119 27.0315L18.3571 24.2681C17.8179 23.7286 17.8181 22.8539 18.3571 22.3143C18.8964 21.7747 19.7706 21.7747 20.3099 22.3143L22.0954 24.1008L26.6429 19.5508ZM24.8573 15.6918V10.4389L15.1906 15.8132V26.4688L15.9013 26.0748C16.568 25.7043 17.4082 25.9448 17.7786 26.6119C18.1486 27.2789 17.9084 28.1196 17.2418 28.4901L15.5534 29.4292C15.2401 29.6034 14.8301 29.8478 14.3666 29.9433C13.9995 30.0189 13.6198 30.0189 13.2527 29.9433C12.7891 29.8478 12.3792 29.6034 12.0659 29.4292L1.84623 23.7486C1.51575 23.5649 1.0678 23.3344 0.73094 22.9687C0.464572 22.6795 0.262272 22.3368 0.138906 21.9634C0.0218198 21.6089 0.00262997 21.236 0 20.9123V9.08818C0.00263611 8.76478 0.022032 8.3927 0.138906 8.03841C0.26226 7.66486 0.464482 7.32111 0.73094 7.03181C1.06782 6.66614 1.51578 6.43558 1.84623 6.2519L12.0659 0.571244C12.3792 0.397087 12.7892 0.152657 13.2527 0.0571513C13.5279 0.000509689 13.8103 -0.0143289 14.0888 0.0139729L14.3666 0.0571513L14.5379 0.0989803C14.9311 0.212203 15.2792 0.418843 15.5534 0.571244L25.773 6.2519C26.1035 6.43558 26.5515 6.66614 26.8883 7.03181C27.0883 7.2489 27.2512 7.49675 27.3725 7.76449L27.4804 8.03841L27.5303 8.21652C27.6027 8.51527 27.6171 8.81856 27.6193 9.08818V15.6918C27.619 16.4546 27.0008 17.0735 26.2383 17.0735C25.4758 17.0735 24.8577 16.4546 24.8573 15.6918ZM4.22381 8.09103L13.8096 13.4182L17.1798 11.5453L7.5953 6.21817L4.22381 8.09103ZM13.8029 2.77334C13.7232 2.81178 13.6169 2.87166 13.4078 2.98788L10.4395 4.63676L20.024 9.96524L23.3941 8.09103L14.2115 2.98788C14.0024 2.87165 13.896 2.81178 13.8164 2.77334C13.8139 2.77215 13.8119 2.77036 13.8096 2.76929C13.8074 2.77036 13.8054 2.77215 13.8029 2.77334ZM2.76867 21.0837C2.7688 21.0859 2.76867 21.0904 2.76867 21.0904C2.77096 21.0919 2.77288 21.0942 2.77541 21.0958C2.85454 21.1463 2.96721 21.2105 3.18808 21.3333L12.4287 26.4675V15.8132L2.76193 10.4389V20.6087C2.76193 20.8609 2.76305 20.9901 2.76867 21.0837Z" fill="black"/>
</svg>
