<svg width="18" height="18" viewBox="0 0 18 18" fill="none" xmlns="http://www.w3.org/2000/svg">
<path d="M2.78678 7.75702C3.12994 7.41415 3.68627 7.41402 4.02934 7.75702C4.37241 8.1001 4.37224 8.6564 4.02934 8.99959L2.78678 10.243C1.41417 11.6156 1.41415 13.8406 2.78678 15.2132C4.15942 16.5858 6.38439 16.5858 7.75702 15.2132L8.99959 13.9707C9.34274 13.6275 9.89984 13.6275 10.243 13.9707C10.5859 14.3138 10.5859 14.8701 10.243 15.2132L8.99959 16.4558C6.94063 18.5147 3.60318 18.5147 1.54422 16.4558C-0.514741 14.3968 -0.51474 11.0585 1.54422 8.99959L2.78678 7.75702ZM11.4538 5.3028C11.797 4.95964 12.3541 4.95964 12.6972 5.3028C13.0404 5.64596 13.0404 6.20307 12.6972 6.54621L6.54621 12.6972C6.20307 13.0404 5.64596 13.0403 5.3028 12.6972C4.95964 12.3541 4.95965 11.797 5.3028 11.4538L11.4538 5.3028ZM8.99959 1.54422C11.0585 -0.51474 14.3968 -0.514741 16.4558 1.54422C18.5147 3.60318 18.5147 6.94063 16.4558 8.99959L15.2132 10.243C14.8701 10.5859 14.3138 10.5859 13.9707 10.243C13.6275 9.89984 13.6275 9.34275 13.9707 8.99959L15.2132 7.75702C16.5858 6.38439 16.5858 4.15942 15.2132 2.78678C13.8406 1.41415 11.6156 1.41417 10.243 2.78678L8.99959 4.02934C8.6564 4.37224 8.1001 4.37241 7.75702 4.02934C7.41402 3.68627 7.41415 3.12994 7.75702 2.78678L8.99959 1.54422Z" fill="black"/>
</svg>
