<svg width="26" height="29" viewBox="0 0 26 29" fill="none" xmlns="http://www.w3.org/2000/svg">
<path d="M22.5309 19.4998C23.0397 18.985 23.8645 18.985 24.3733 19.4998C24.8821 20.0146 24.8821 20.849 24.3733 21.3638L18.5103 27.2956C18.0015 27.8104 17.1767 27.8104 16.6679 27.2956L14.0621 24.6593C13.5533 24.1445 13.5533 23.3101 14.0621 22.7953C14.5709 22.2805 15.3957 22.2805 15.9045 22.7953L17.5891 24.4996L22.5309 19.4998ZM9.12027 17.1364C9.83984 17.1364 10.4232 17.7265 10.4232 18.4545C10.4232 19.1826 9.83984 19.7727 9.12027 19.7727H6.51448C5.79491 19.7727 5.21158 19.1826 5.21158 18.4545C5.21158 17.7265 5.79491 17.1364 6.51448 17.1364H9.12027ZM23.3942 15.1591V7.6452C23.3942 6.51632 23.3938 5.74882 23.3459 5.15559C23.2992 4.57767 23.2143 4.28172 23.1105 4.07555C22.8607 3.57958 22.4619 3.17617 21.9717 2.92343C21.7679 2.81839 21.4754 2.7325 20.9042 2.68528C20.3179 2.63683 19.5592 2.63637 18.4435 2.63637H7.55654C6.44075 2.63637 5.68215 2.63683 5.0958 2.68528C4.52459 2.7325 4.23206 2.81839 4.02829 2.92343C3.53807 3.17617 3.13934 3.57958 2.88953 4.07555C2.7857 4.28172 2.70081 4.57767 2.65414 5.15559C2.60625 5.74882 2.60579 6.51632 2.60579 7.6452V21.3548C2.60579 22.4837 2.60625 23.2512 2.65414 23.8444C2.70081 24.4223 2.7857 24.7183 2.88953 24.9244C3.13934 25.4204 3.53807 25.8238 4.02829 26.0766C4.23206 26.1816 4.52459 26.2675 5.0958 26.3147C5.68215 26.3632 6.44075 26.3636 7.55654 26.3636H11.7261C12.4456 26.3636 13.029 26.9538 13.029 27.6818C13.029 28.4098 12.4456 29 11.7261 29H7.55654C6.48362 29 5.6004 29.0013 4.88331 28.9421C4.15101 28.8815 3.4773 28.7518 2.845 28.4259C1.86456 27.9204 1.06709 27.1136 0.567474 26.1216C0.245301 25.4819 0.117099 24.8003 0.0572587 24.0594C-0.00132965 23.3339 2.37977e-06 22.4403 2.53973e-06 21.3548V7.6452C2.37977e-06 6.55969 -0.00132965 5.66611 0.0572587 4.94061C0.117099 4.19972 0.245301 3.5181 0.567474 2.87838C1.06709 1.88644 1.86456 1.07961 2.845 0.574133C3.4773 0.248179 4.15101 0.118473 4.88331 0.0579305C5.6004 -0.00134525 6.48362 2.40766e-06 7.55654 2.56951e-06H18.4435C19.5164 2.40766e-06 20.3996 -0.00134525 21.1167 0.0579305C21.849 0.118473 22.5227 0.248179 23.155 0.574133C24.1354 1.07961 24.9329 1.88643 25.4325 2.87838C25.7547 3.5181 25.8829 4.19972 25.9427 4.94061C26.0013 5.66611 26 6.55969 26 7.6452V15.1591C26 15.8871 25.4167 16.4773 24.6971 16.4773C23.9775 16.4773 23.3942 15.8871 23.3942 15.1591ZM14.3318 11.8636C15.0514 11.8636 15.6347 12.4538 15.6347 13.1818C15.6347 13.9098 15.0514 14.5 14.3318 14.5H6.51448C5.79491 14.5 5.21158 13.9098 5.21158 13.1818C5.21158 12.4538 5.79491 11.8636 6.51448 11.8636H14.3318ZM19.4855 6.59091C20.2051 6.59091 20.7884 7.18108 20.7884 7.90909C20.7884 8.6371 20.2051 9.22727 19.4855 9.22727H6.51448C5.79491 9.22727 5.21158 8.6371 5.21158 7.90909C5.21158 7.18108 5.79491 6.59091 6.51448 6.59091H19.4855Z" fill="black"/>
</svg>
