<svg width="28" height="29" viewBox="0 0 28 29" fill="none" xmlns="http://www.w3.org/2000/svg">
<path d="M25.2 8.13852C25.2 6.9368 25.1995 6.11977 25.148 5.48826C25.0979 4.87306 25.0067 4.558 24.8951 4.33853C24.6267 3.81056 24.1982 3.38112 23.6715 3.11207C23.4525 3.00025 23.1382 2.90882 22.5244 2.85856C21.8944 2.80697 21.0792 2.80648 19.8803 2.80648H8.11973C6.92078 2.80648 6.10564 2.80697 5.47559 2.85856C4.86181 2.90882 4.54748 3.00025 4.32852 3.11207C3.80176 3.38112 3.37331 3.81056 3.10488 4.33853C2.99332 4.558 2.9021 4.87306 2.85196 5.48826C2.80049 6.11977 2.8 6.9368 2.8 8.13852V16.1373C2.8 17.1371 2.80097 17.8167 2.83692 18.3449C2.87202 18.8605 2.93587 19.1291 3.01328 19.3165C3.29746 20.0039 3.84234 20.55 4.52813 20.8348C4.71503 20.9124 4.98303 20.9764 5.49746 21.0116C6.02445 21.0476 6.7025 21.0486 7.7 21.0486C8.31683 21.0486 8.85201 21.0395 9.36524 21.161C9.99948 21.3111 10.5902 21.6072 11.0906 22.0257C11.4954 22.3643 11.8102 22.7987 12.1803 23.2932L14 25.7256L15.8197 23.2932C16.1898 22.7987 16.5046 22.3643 16.9094 22.0257C17.4098 21.6072 18.0005 21.3111 18.6348 21.161C19.148 21.0395 19.6832 21.0486 20.3 21.0486C21.2975 21.0486 21.9756 21.0476 22.5025 21.0116C23.017 20.9764 23.285 20.9124 23.4719 20.8348C24.1577 20.55 24.7025 20.0039 24.9867 19.3165C25.0641 19.1291 25.128 18.8605 25.1631 18.3449C25.199 17.8167 25.2 17.1371 25.2 16.1373V8.13852ZM17.9102 8.12893C18.4569 7.58093 19.3431 7.58093 19.8898 8.12893C20.4366 8.67693 20.4366 9.5652 19.8898 10.1132L13.5898 16.4278C13.0431 16.9758 12.1569 16.9758 11.6102 16.4278L8.81016 13.6213C8.26342 13.0733 8.26342 12.185 8.81016 11.637C9.35689 11.089 10.2431 11.089 10.7898 11.637L12.6 13.4514L17.9102 8.12893ZM28 16.1373C28 17.0988 28.0002 17.8908 27.9562 18.5367C27.9114 19.1949 27.8155 19.8035 27.5734 20.3895C27.0051 21.7648 25.9145 22.8578 24.5424 23.4275C23.9578 23.6702 23.3505 23.7663 22.6939 23.8112C22.0495 23.8553 21.2593 23.8551 20.3 23.8551C19.5498 23.8551 19.4 23.8634 19.2787 23.8921C19.0672 23.9421 18.87 24.0416 18.7031 24.1812C18.6074 24.2613 18.511 24.3755 18.0605 24.9774L16.0166 27.7099C15.8804 27.892 15.723 28.1037 15.5723 28.2717C15.4155 28.4464 15.1543 28.7036 14.7615 28.8569C14.2719 29.0477 13.7281 29.0477 13.2385 28.8569C12.8457 28.7036 12.5845 28.4464 12.4277 28.2717C12.277 28.1037 12.1196 27.892 11.9834 27.7099L9.93945 24.9774C9.48905 24.3755 9.39258 24.2613 9.29688 24.1812C9.13001 24.0416 8.93282 23.9421 8.72129 23.8921C8.60001 23.8634 8.45023 23.8551 7.7 23.8551C6.74068 23.8551 5.95048 23.8553 5.30606 23.8112C4.64946 23.7663 4.04224 23.6702 3.45762 23.4275C2.08546 22.8578 0.994931 21.7648 0.426565 20.3895C0.184489 19.8035 0.0885862 19.1949 0.0437527 18.5367C-0.000216049 17.8908 2.72902e-06 17.0988 2.72902e-06 16.1373V8.13852C2.55755e-06 6.98296 -0.00142876 6.03172 0.0615262 5.25941C0.125827 4.47071 0.263583 3.74511 0.609768 3.06411C1.14662 2.00816 2.00353 1.14928 3.05703 0.611179C3.73646 0.264193 4.46039 0.126118 5.24727 0.0616685C6.0178 -0.00143205 6.96684 2.5631e-06 8.11973 2.73538e-06H19.8803C21.0332 2.56394e-06 21.9822 -0.00143208 22.7527 0.0616685C23.5396 0.126118 24.2635 0.264193 24.943 0.611179C25.9965 1.14928 26.8534 2.00816 27.3902 3.06411C27.7364 3.74511 27.8742 4.47071 27.9385 5.25941C28.0014 6.03172 28 6.98296 28 8.13852V16.1373Z" fill="black"/>
</svg>
