<svg width="32" height="29" viewBox="0 0 32 29" fill="none" xmlns="http://www.w3.org/2000/svg">
<path d="M3.64361 2.28702C7.55275 -1.0988 12.5854 -0.479641 15.9889 2.53613C19.3886 -0.481515 24.3683 -1.05648 28.3214 2.27406C32.6466 5.9182 33.1661 12.133 29.8356 16.4775C28.6791 17.986 26.5266 20.1766 24.3696 22.2617C22.1886 24.3701 19.922 26.4482 18.479 27.7536C18.232 27.977 17.9837 28.202 17.7559 28.3771C17.5109 28.5655 17.2094 28.76 16.8255 28.8767C16.2846 29.0411 15.696 29.0411 15.1551 28.8767C14.7712 28.76 14.4698 28.5655 14.2247 28.3771C13.9969 28.202 13.7486 27.977 13.5016 27.7536C12.0585 26.4482 9.79067 24.3702 7.60955 22.2617C5.45278 20.1767 3.30138 17.9859 2.14502 16.4775C-1.19825 12.1163 -0.584224 5.94907 3.64361 2.28702ZM14.8852 5.58446C12.4052 2.64537 8.4631 1.99252 5.53425 4.52899C2.47486 7.17881 2.06248 11.5652 4.44191 14.669C5.44687 15.9797 7.44611 18.0281 9.61809 20.1277C11.7661 22.2042 14.007 24.2579 15.4392 25.5534C15.7198 25.8072 15.8682 25.9397 15.9818 26.0271C15.9844 26.0291 15.9878 26.031 15.9903 26.0329C15.9928 26.031 15.9962 26.0291 15.9988 26.0271C16.1125 25.9397 16.2609 25.8072 16.5414 25.5534C17.9736 24.2579 20.2145 22.2042 22.3625 20.1277C24.5345 18.0281 26.5338 15.9797 27.5387 14.669C29.931 11.5484 29.5495 7.14326 26.462 4.54195C23.4555 2.00888 19.5646 2.65825 17.0954 5.58446C16.8191 5.91173 16.4153 6.09995 15.9903 6.09995C15.5653 6.09995 15.1615 5.91172 14.8852 5.58446ZM20.0628 8.54351C20.6308 7.96769 21.5516 7.96769 22.1196 8.54351C22.6877 9.11933 22.6877 10.0527 22.1196 10.6285L15.5741 17.2637C15.0061 17.8395 14.0853 17.8395 13.5173 17.2637L10.6082 14.3147C10.0401 13.7389 10.0401 12.8055 10.6082 12.2297C11.1762 11.6539 12.097 11.6539 12.665 12.2297L14.5457 14.1362L20.0628 8.54351Z" fill="black"/>
</svg>
