<svg width="288" height="66" viewBox="0 0 288 66" fill="none" xmlns="http://www.w3.org/2000/svg">
<path d="M176.188 10C178.214 10 180.067 10.1644 181.741 10.4971C183.418 10.8297 184.937 11.2843 186.304 11.8672C187.67 12.4501 188.93 13.1554 190.09 13.9824C191.249 14.8126 192.324 15.7257 193.319 16.7207L187.235 23.7568C185.537 22.2215 183.811 21.0185 182.052 20.1455C180.293 19.2726 178.317 18.8389 176.123 18.8389C174.3 18.8389 172.617 19.1934 171.064 19.8984C169.512 20.6035 168.179 21.58 167.06 22.8252C165.943 24.0705 165.072 25.5143 164.451 27.1533C163.83 28.7924 163.52 30.548 163.52 32.416V32.541C163.52 34.409 163.83 36.1736 164.451 37.834C165.072 39.4943 165.931 40.9471 167.026 42.1924C168.122 43.4376 169.446 44.424 170.998 45.1504C172.55 45.8767 174.258 46.2392 176.12 46.2393C178.603 46.2393 180.703 45.7817 182.42 44.8691C184.136 43.9565 185.845 42.7109 187.543 41.1328L193.627 47.2959C192.51 48.5015 191.35 49.5789 190.151 50.5342C188.949 51.4895 187.637 52.3074 186.21 52.9941C184.783 53.6779 183.218 54.1998 181.522 54.5508C179.824 54.9018 177.922 55.0791 175.812 55.0791V55.0732C172.626 55.0732 169.668 54.4899 166.935 53.3301C164.202 52.1702 161.846 50.5798 159.858 48.5684C157.871 46.5569 156.319 44.1792 155.202 41.4414C154.085 38.7035 153.524 35.7764 153.524 32.6631V32.5381C153.524 29.4247 154.085 26.5096 155.202 23.79C156.319 21.0735 157.871 18.6862 159.858 16.6289C161.846 14.5748 164.223 12.9577 166.999 11.7734C169.772 10.5892 172.834 10 176.188 10ZM26.8252 10.125C30.0116 10.125 32.9393 10.6013 35.6084 11.5566C38.2776 12.512 40.7309 13.8825 42.9648 15.665L37.998 22.8867C36.0533 21.559 34.1476 20.5123 32.2881 19.7432C30.4255 18.9771 28.5628 18.5918 26.7002 18.5918C24.8375 18.5918 23.4401 18.9552 22.5088 19.6816C21.5775 20.4081 21.1123 21.3122 21.1123 22.3896V22.5146C21.1123 23.2195 21.2459 23.8328 21.5166 24.3516C21.7875 24.8704 22.2745 25.3378 22.9805 25.7529C23.6866 26.168 24.6515 26.5621 25.875 26.9375C27.0985 27.3129 28.6449 27.7456 30.5137 28.2432C32.7141 28.8261 34.6739 29.4798 36.3965 30.2031C38.1191 30.9296 39.5709 31.8029 40.7549 32.8193C41.9357 33.8357 42.8311 35.029 43.4307 36.3994C44.0302 37.7698 44.334 39.4089 44.334 41.3164V41.4414C44.334 43.5994 43.9443 45.5194 43.1621 47.2012C42.3799 48.883 41.2905 50.293 39.8936 51.4346C38.4936 52.576 36.8261 53.4495 34.8906 54.0508C32.952 54.6521 30.8029 54.9541 28.4443 54.9541L28.4375 54.9482C25.1262 54.9482 21.8789 54.3769 18.6924 53.2354C15.5058 52.0938 12.6083 50.3422 10 47.9736L15.6484 41.1885C17.6359 42.8062 19.6728 44.0944 21.7637 45.0498C23.8513 46.005 26.1398 46.4814 28.623 46.4814C30.6105 46.4814 32.1513 46.118 33.25 45.3916C34.3455 44.6652 34.8964 43.6578 34.8965 42.373V42.2471C34.8964 41.6248 34.7807 41.0757 34.5557 40.5967C34.3275 40.1206 33.892 39.6748 33.2471 39.2598C32.6049 38.8447 31.7126 38.4288 30.5713 38.0137C29.4301 37.5986 27.9479 37.1627 26.1221 36.708C23.9217 36.1708 21.931 35.5658 20.1445 34.9004C18.3611 34.2381 16.8453 33.4171 15.6006 32.4404C14.3558 31.4667 13.3909 30.2517 12.7061 28.7988C12.0213 27.3459 11.6768 25.5419 11.6768 23.3809V23.2559C11.6768 21.2628 12.0455 19.4683 12.7881 17.8721C13.5277 16.2757 14.5652 14.8953 15.9014 13.7324C17.2374 12.5696 18.8321 11.6783 20.6885 11.0557C22.542 10.436 24.5882 10.125 26.8252 10.125ZM260.49 10.1221C263.677 10.1221 266.604 10.5984 269.273 11.5537C271.943 12.5091 274.396 13.8796 276.63 15.6621L271.663 22.8838C269.718 21.556 267.813 20.5094 265.953 19.7402C264.09 18.9741 262.228 18.5889 260.365 18.5889C258.503 18.5889 257.106 18.9525 256.175 19.6787C255.243 20.4052 254.777 21.3093 254.777 22.3867V22.5117C254.777 23.2167 254.912 23.8298 255.183 24.3486C255.453 24.8675 255.94 25.3349 256.646 25.75C257.353 26.165 258.318 26.5592 259.541 26.9346C260.764 27.3069 262.31 27.7428 264.179 28.2402C266.376 28.8232 268.34 29.4768 270.062 30.2002C271.785 30.9266 273.237 31.8001 274.421 32.8164C275.602 33.8327 276.496 35.0262 277.096 36.3965C277.695 37.7669 278 39.4059 278 41.3135V41.4385C278 43.5964 277.61 45.5165 276.828 47.1982C276.046 48.8799 274.956 50.2901 273.56 51.4316C272.16 52.5732 270.491 53.4465 268.553 54.0479C266.614 54.6491 264.465 54.9512 262.106 54.9512L262.101 54.9482C258.789 54.9482 255.541 54.3779 252.354 53.2363C249.168 52.0948 246.27 50.3422 243.662 47.9736L249.312 41.1885C251.299 42.8061 253.335 44.0945 255.426 45.0498C257.514 46.0051 259.803 46.4814 262.286 46.4814C264.273 46.4814 265.813 46.118 266.912 45.3916C268.008 44.6652 268.559 43.6579 268.559 42.373V42.248C268.559 41.6255 268.443 41.0758 268.218 40.5967C267.99 40.1206 267.554 39.6748 266.909 39.2598C266.267 38.8447 265.375 38.4288 264.233 38.0137C263.092 37.5986 261.61 37.1627 259.784 36.708C257.584 36.1708 255.593 35.5658 253.81 34.9004C252.026 34.238 250.51 33.4172 249.266 32.4404C248.021 31.4667 247.056 30.2517 246.371 28.7988C245.686 27.346 245.343 25.5418 245.343 23.3809V23.2559C245.343 21.2629 245.711 19.4683 246.453 17.8721C247.193 16.2759 248.23 14.8962 249.566 13.7334C250.903 12.5705 252.498 11.6783 254.354 11.0557C256.208 10.4331 258.256 10.1221 260.49 10.1221ZM102.867 54.3281H93.3076V10.7471H102.867V54.3281ZM123.729 54.3281H114.169V10.7471H123.729V54.3281ZM144.586 54.3281H135.025V10.7471H144.586V54.3281ZM210.823 29.7969L228.454 10.7471H240.001L222.31 29.2383L240.808 54.3281H229.324L215.854 35.7764L210.826 41.0049V54.3281H201.266V10.7471H210.823V29.7969ZM85.5498 19.5869H72.3262V54.3252H62.7666V19.5869H49.5449V10.7471H85.5498V19.5869Z" fill="black"/>
</svg>
