<svg width="512" height="86" viewBox="0 0 512 86" fill="none" xmlns="http://www.w3.org/2000/svg">
<path d="M317.047 0C320.914 0 324.45 0.314536 327.644 0.949219C330.843 1.58392 333.741 2.45227 336.348 3.56445C338.955 4.6766 341.358 6.02168 343.57 7.59961C345.783 9.18345 347.833 10.924 349.731 12.8223L338.124 26.2441C334.884 23.3154 331.592 21.0208 328.236 19.3555C324.88 17.6901 321.111 16.8633 316.925 16.8633C313.447 16.8633 310.236 17.5387 307.274 18.8838C304.313 20.2289 301.771 22.093 299.634 24.4688C297.503 26.8445 295.842 29.5987 294.657 32.7256C293.473 35.8523 292.881 39.2003 292.881 42.7637V43.0029C292.881 46.5664 293.473 49.932 294.657 53.0996C295.842 56.2672 297.479 59.0393 299.569 61.415C301.66 63.7908 304.186 65.6718 307.147 67.0576C310.109 68.4433 313.366 69.1367 316.919 69.1367C321.657 69.1367 325.664 68.2626 328.938 66.5215C332.213 64.7804 335.471 62.405 338.711 59.3945L350.317 71.1514C348.187 73.4513 345.974 75.5066 343.687 77.3291C341.393 79.1517 338.89 80.7123 336.167 82.0225C333.444 83.3267 330.46 84.3226 327.226 84.9922C323.986 85.6618 320.357 86 316.333 86V85.9883C310.254 85.9883 304.61 84.8758 299.396 82.6631C294.181 80.4504 289.687 77.4164 285.896 73.5791C282.104 69.7418 279.143 65.2056 277.012 59.9824C274.881 54.7593 273.812 49.1747 273.812 43.2354V42.9971C273.812 37.0577 274.881 31.4968 277.012 26.3086C279.143 21.1262 282.104 16.5721 285.896 12.6475C289.687 8.72869 294.222 5.64307 299.518 3.38379C304.807 1.1245 310.648 9.78773e-06 317.047 0ZM32.0977 0.239258C38.177 0.239258 43.7632 1.14812 48.8555 2.9707C53.9476 4.79328 58.6278 7.40807 62.8896 10.8086L53.4131 24.585C49.7029 22.0521 46.0681 20.0552 42.5205 18.5879C38.967 17.1263 35.4129 16.3926 31.8594 16.3926C28.306 16.3926 25.641 17.0859 23.8643 18.4717C22.0876 19.8575 21.1992 21.5813 21.1992 23.6367V23.875C21.1992 25.2201 21.4549 26.391 21.9717 27.3809C22.4885 28.3706 23.4178 29.2609 24.7646 30.0527C26.1117 30.8446 27.952 31.5963 30.2861 32.3125C32.6202 33.0287 35.5698 33.8556 39.1348 34.8047C43.3328 35.9169 47.0729 37.1629 50.3594 38.543C53.6457 39.9288 56.4152 41.5942 58.6738 43.5332C60.9266 45.4722 62.6335 47.7489 63.7773 50.3633C64.9212 52.9777 65.5019 56.1049 65.502 59.7441V59.9834C65.5019 64.1 64.7587 67.7624 63.2666 70.9707C61.7744 74.1792 59.6954 76.8701 57.0303 79.0479C54.3594 81.2255 51.1771 82.891 47.4844 84.0381C43.7858 85.1851 39.6863 85.7617 35.1865 85.7617L35.1748 85.75C28.8576 85.75 22.6622 84.6611 16.583 82.4834C10.5037 80.3056 4.97608 76.9629 0 72.4443L10.7764 59.5C14.5679 62.5861 18.4525 65.0436 22.4414 66.8662C26.4246 68.6888 30.7913 69.5967 35.5293 69.5967C39.3209 69.5967 42.2594 68.9034 44.3555 67.5176C46.4455 66.1317 47.4961 64.2101 47.4961 61.7588V61.5205C47.4961 60.3326 47.2754 59.2843 46.8457 58.3701C46.4102 57.4618 45.5805 56.6112 44.3496 55.8193C43.1245 55.0274 41.4225 54.2363 39.2451 53.4443C37.0678 52.6525 34.2404 51.8197 30.7568 50.9521C26.5588 49.9273 22.7609 48.7743 19.3525 47.5049C15.95 46.2413 13.0584 44.6749 10.6836 42.8115C8.30877 40.954 6.46855 38.636 5.16211 35.8643C3.8557 33.0926 3.19922 29.6509 3.19922 25.5283V25.29C3.19922 21.4878 3.90169 18.0639 5.31836 15.0186C6.72932 11.9732 8.70978 9.34062 11.2588 7.12207C13.8077 4.90363 16.8508 3.20347 20.3926 2.01562C23.9285 0.833679 27.8302 0.239272 32.0977 0.239258ZM477.879 0.234375C483.958 0.234396 489.544 1.14233 494.636 2.96484C499.728 4.78743 504.408 7.40213 508.67 10.8027L499.194 24.5801C495.484 22.0471 491.848 20.0494 488.301 18.582C484.747 17.1206 481.194 16.3867 477.641 16.3867C474.087 16.3867 471.422 17.08 469.646 18.4658C467.869 19.8517 466.98 21.5754 466.98 23.6309V23.8691C466.98 25.2142 467.235 26.3851 467.752 27.375C468.269 28.3649 469.198 29.256 470.545 30.0479C471.892 30.8398 473.733 31.5904 476.067 32.3066C478.402 33.017 481.351 33.8497 484.916 34.7988C489.108 35.911 492.853 37.1571 496.14 38.5371C499.426 39.9229 502.195 41.5884 504.454 43.5273C506.707 45.4663 508.415 47.7431 509.559 50.3574C510.702 52.9718 511.283 56.0991 511.283 59.7383V59.9775C511.283 64.0943 510.54 67.7574 509.048 70.9658C507.556 74.1742 505.477 76.8643 502.812 79.042C500.141 81.2198 496.958 82.8851 493.26 84.0322C489.561 85.1793 485.462 85.7559 480.962 85.7559L480.95 85.75C474.633 85.75 468.438 84.6611 462.358 82.4834C456.279 80.3056 450.751 76.9629 445.775 72.4443L456.552 59.5C460.343 62.5862 464.228 65.0436 468.217 66.8662C472.2 68.6888 476.567 69.5967 481.305 69.5967C485.096 69.5966 488.034 68.9042 490.13 67.5186C492.22 66.1327 493.271 64.2103 493.271 61.7588V61.5205C493.271 60.3326 493.051 59.2843 492.621 58.3701C492.186 57.4618 491.355 56.6122 490.124 55.8203C488.899 55.0284 487.198 54.2362 485.021 53.4443C482.843 52.6524 480.015 51.8198 476.531 50.9521C472.333 49.9273 468.536 48.7742 465.134 47.5049C461.731 46.2413 458.84 44.6748 456.465 42.8115C454.09 40.954 452.249 38.636 450.942 35.8643C449.636 33.0927 448.981 29.6515 448.98 25.5293V25.29C448.98 21.4877 449.683 18.0639 451.1 15.0186C452.511 11.9732 454.49 9.34061 457.039 7.12207C459.588 4.90354 462.631 3.20351 466.173 2.01562C469.709 0.827743 473.617 0.234375 477.879 0.234375ZM177.17 84.5664H158.932V1.42676H177.17V84.5664ZM216.969 84.5664H198.73V1.42676H216.969V84.5664ZM256.759 84.5664H238.521V1.42676H256.759V84.5664ZM383.124 37.7676L416.761 1.42676H438.79L405.037 36.7021L440.329 84.5664H418.421L392.722 49.1748L383.13 59.1494V84.5664H364.892V1.42676H383.124V37.7676ZM144.133 18.29H118.903V84.5615H100.666V18.29H75.4424V1.42676H144.133V18.29Z" fill="black"/>
</svg>
