<svg width="28" height="28" viewBox="0 0 28 28" fill="none" xmlns="http://www.w3.org/2000/svg">
<path d="M12.3906 13.724C12.9113 13.2033 13.7553 13.2033 14.276 13.724C14.7967 14.2447 14.7967 15.0887 14.276 15.6094L2.27595 27.6095C1.75525 28.1302 0.911227 28.1302 0.390526 27.6095C-0.130175 27.0888 -0.130175 26.2448 0.390526 25.7241L12.3906 13.724ZM16 20.0001V17.3334C16 16.597 16.5969 16.0001 17.3333 16.0001C18.0697 16.0001 18.6666 16.597 18.6666 17.3334V20.0001C18.6666 20.7365 18.0697 21.3334 17.3333 21.3334C16.5969 21.3334 16 20.7365 16 20.0001ZM20.1237 13.4571C20.6443 12.9365 21.4884 12.9366 22.0091 13.4571L23.6094 15.0573C24.1301 15.578 24.1301 16.4221 23.6094 16.9428C23.0887 17.4635 22.2446 17.4635 21.7239 16.9428L20.1237 15.3425C19.6032 14.8218 19.6031 13.9777 20.1237 13.4571ZM10.6666 9.33337C11.403 9.33337 11.9999 9.93032 11.9999 10.6667C11.9999 11.4031 11.403 12 10.6666 12H7.99993C7.26355 12 6.66659 11.4031 6.66659 10.6667C6.66659 9.93032 7.26355 9.33337 7.99993 9.33337H10.6666ZM26.6667 9.33337C27.403 9.33337 28 9.93032 28 10.6667C28 11.4031 27.403 12 26.6667 12H24C23.2636 12 22.6666 11.4031 22.6666 10.6667C22.6666 9.93032 23.2636 9.33337 24 9.33337H26.6667ZM11.0572 4.39064C11.5779 3.86994 12.422 3.86994 12.9427 4.39064L14.5429 5.99091C15.0634 6.51163 15.0635 7.35572 14.5429 7.87633C14.0223 8.39694 13.1782 8.39677 12.6575 7.87633L11.0572 6.27606C10.5365 5.75536 10.5365 4.91134 11.0572 4.39064ZM21.7239 4.39064C22.2446 3.86994 23.0887 3.86994 23.6094 4.39064C24.1301 4.91134 24.1301 5.75536 23.6094 6.27606L22.0091 7.87633C21.4884 8.39677 20.6443 8.39694 20.1237 7.87633C19.6031 7.35572 19.6032 6.51163 20.1237 5.99091L21.7239 4.39064ZM16 4.00001V1.33334C16 0.596956 16.5969 0 17.3333 0C18.0697 0 18.6666 0.596956 18.6666 1.33334V4.00001C18.6666 4.7364 18.0697 5.33335 17.3333 5.33335C16.5969 5.33335 16 4.7364 16 4.00001Z" fill="black"/>
</svg>
